<?xml version="1.0" standalone="no"?>
<!DOCTYPE svg PUBLIC "-//W3C//DTD SVG 20010904//EN"
 "http://www.w3.org/TR/2001/REC-SVG-20010904/DTD/svg10.dtd">
<svg version="1.0" xmlns="http://www.w3.org/2000/svg"
 width="949.000000pt" height="256.000000pt" viewBox="0 0 949.000000 256.000000"
 preserveAspectRatio="xMidYMid meet">
<metadata>
Created by potrace 1.15, written by Peter Selinger 2001-2017
</metadata>
<g transform="translate(0.000000,256.000000) scale(0.100000,-0.100000)"
fill="#000000" stroke="none">
<path d="M1006 2354 c-3 -9 -6 -32 -6 -51 0 -34 -1 -35 -17 -21 -28 24 -140
78 -163 78 -39 0 -35 -29 11 -77 24 -25 60 -55 79 -68 41 -26 162 -191 215
-292 20 -37 53 -84 74 -103 20 -19 54 -65 74 -102 23 -40 58 -84 88 -110 35
-29 49 -48 47 -62 -2 -12 11 -43 28 -69 l32 -48 -23 -42 c-13 -23 -28 -64 -35
-92 -11 -46 -9 -56 19 -135 26 -74 28 -87 17 -106 -24 -36 -56 -154 -56 -206
l0 -51 -62 7 c-151 15 -243 18 -233 8 9 -9 352 -58 577 -82 43 -5 86 -11 95
-14 10 -3 86 -12 168 -21 139 -14 470 -63 575 -85 25 -5 93 -12 153 -16 59 -4
107 -9 106 -13 -1 -9 -84 -68 -129 -91 -22 -11 -124 -75 -227 -141 -103 -66
-205 -130 -227 -141 -73 -37 -180 -113 -164 -116 17 -3 239 127 444 260 72 47
150 96 175 108 24 13 70 40 102 62 48 33 57 36 57 20 0 -12 -26 -35 -77 -67
-43 -27 -96 -62 -118 -77 -22 -16 -84 -58 -137 -93 -53 -35 -135 -92 -181
-127 -47 -35 -106 -78 -132 -96 -26 -19 -44 -36 -41 -40 7 -6 131 77 226 153
36 28 110 81 165 117 55 37 134 90 175 119 41 28 90 58 108 66 29 12 32 17 32
57 l0 44 -52 6 c-29 3 -101 11 -160 17 l-107 12 6 91 c2 50 11 156 19 236 7
80 21 245 30 367 17 215 17 224 -1 243 -10 11 -16 22 -14 23 2 2 14 10 26 18
12 9 93 83 178 165 125 119 165 151 198 160 66 18 152 69 155 93 4 23 -17 27
-53 10 -15 -7 -12 -8 13 -3 17 3 32 3 32 0 0 -6 -54 -21 -112 -31 -21 -3 -38
-10 -38 -16 0 -6 5 -7 10 -4 6 4 25 8 43 10 18 2 43 6 57 10 14 3 -2 -8 -36
-24 -34 -16 -75 -32 -91 -35 -20 -5 -79 -52 -169 -136 -77 -71 -182 -159 -234
-194 -52 -36 -112 -81 -132 -100 -21 -20 -62 -49 -91 -66 -29 -16 -62 -39 -74
-50 -35 -32 -48 -23 -14 11 17 17 31 37 31 46 0 17 -8 12 -57 -31 l-23 -19 0
74 c0 79 23 169 43 169 7 0 26 7 42 16 17 8 53 22 82 29 28 7 64 22 79 32 24
16 27 16 22 2 -4 -9 -9 -38 -13 -65 -9 -65 10 -39 26 36 7 30 17 61 23 69 6 8
48 31 92 52 45 21 123 65 175 99 76 50 96 68 102 93 5 18 15 39 22 47 8 9 23
36 34 60 20 43 21 44 21 14 0 -16 -7 -39 -15 -50 -13 -17 -21 -64 -11 -64 2 0
20 7 39 15 40 17 82 21 59 6 -11 -7 -10 -10 3 -15 23 -8 27 -8 21 3 -6 10 45
31 75 31 11 0 19 5 19 10 0 14 -45 12 -115 -5 -95 -23 -97 -22 -72 24 18 33
20 42 9 66 -10 21 -15 25 -26 16 -8 -7 -17 -24 -21 -39 -3 -15 -15 -36 -25
-47 -10 -11 -23 -39 -29 -62 l-11 -42 -173 -86 c-94 -48 -180 -94 -190 -103
-16 -14 -17 -12 -17 31 0 59 -36 104 -95 117 -54 13 -222 13 -230 0 -4 -6 -16
-3 -32 10 -14 11 -31 20 -38 20 -21 0 -25 28 -11 70 11 33 11 40 -1 44 -8 3
-25 -6 -38 -20 l-24 -26 -26 20 c-21 17 -31 19 -53 11 -14 -6 -31 -14 -37 -18
-19 -15 -73 -21 -79 -8 -3 9 -5 9 -5 -1 -1 -7 13 -19 30 -26 25 -10 28 -14 14
-20 -9 -3 -31 -6 -49 -6 -30 0 -56 -15 -56 -32 0 -4 9 -16 21 -27 21 -19 21
-19 1 -30 -40 -21 -56 -62 -57 -143 -1 -76 -1 -77 14 -45 l14 32 7 -42 c3 -23
15 -51 25 -63 10 -11 15 -23 11 -27 -4 -5 -12 0 -17 9 -12 21 -65 48 -95 48
-13 0 -29 9 -36 20 -7 11 -18 20 -24 20 -7 0 -37 31 -68 70 -31 38 -76 83
-101 100 -25 17 -54 48 -64 68 -23 45 -69 92 -136 142 -66 49 -126 123 -136
169 -11 52 -33 111 -40 111 -4 0 -10 -7 -13 -16z m44 -123 c0 -27 71 -104 201
-220 25 -22 54 -55 63 -74 10 -18 40 -49 66 -68 26 -20 69 -61 94 -92 l46 -57
-35 -35 c-19 -20 -42 -49 -50 -65 l-16 -30 -37 37 c-21 21 -59 70 -85 109 -26
39 -62 83 -79 96 -18 14 -52 59 -74 100 -23 41 -65 105 -93 142 -40 54 -49 73
-45 95 7 31 -28 81 -56 81 -20 0 -143 70 -136 77 2 3 24 -6 48 -20 24 -14 54
-28 68 -32 23 -7 24 -6 10 10 -12 14 -8 13 20 -4 51 -31 59 -28 53 22 l-4 42
20 -44 c12 -24 21 -55 21 -70z m922 -300 c-3 -22 2 -33 24 -50 l27 -22 -23
-42 c-19 -33 -25 -59 -26 -117 -3 -124 -57 -216 -140 -239 -41 -11 -72 -5
-101 22 -20 18 -21 21 -7 32 9 6 18 32 21 59 5 45 7 47 32 42 14 -3 32 -2 39
3 9 5 1 10 -27 15 -43 7 -71 35 -71 73 0 12 14 61 31 108 36 100 60 124 102
102 19 -10 23 -17 16 -28 -13 -20 -11 -26 8 -33 11 -5 22 -1 30 10 18 24 16
39 -2 24 -18 -15 -20 0 -2 22 13 16 58 48 67 48 4 0 5 -13 2 -29z"/>
<path d="M219 2028 c-1 -29 -4 -89 -6 -133 -7 -147 -4 -658 4 -665 11 -9 108
-30 140 -30 25 0 25 -1 19 -57 -6 -45 -13 -62 -32 -78 -72 -57 -113 -106 -121
-146 -4 -24 -10 -29 -34 -29 -36 0 -55 -28 -64 -93 -9 -60 7 -101 46 -117 24
-10 29 -18 29 -48 0 -19 -8 -44 -17 -54 -10 -11 -17 -36 -18 -61 0 -28 -6 -46
-18 -55 -14 -11 -15 -17 -6 -28 6 -8 18 -14 26 -14 15 0 79 -18 178 -51 70
-23 295 -69 337 -69 60 0 23 19 -69 35 -54 9 -123 23 -153 30 -100 24 -254 66
-259 71 -13 12 10 12 54 -2 28 -8 84 -19 125 -25 41 -5 89 -14 105 -20 67 -24
138 -39 173 -38 l37 1 -40 13 -40 13 45 1 c25 1 70 8 100 17 30 9 92 20 138
25 45 4 90 13 100 19 28 18 -143 6 -227 -16 -72 -19 -73 -19 -87 0 -8 11 -14
36 -14 57 0 31 5 38 28 48 35 14 335 24 327 11 -3 -5 -1 -19 5 -30 9 -16 8
-25 -1 -37 -11 -13 -10 -14 6 -12 11 2 35 -5 53 -15 18 -9 39 -15 45 -13 7 3
-7 13 -30 23 -38 15 -46 24 -42 50 0 4 -5 11 -13 15 -10 7 -10 9 2 9 13 0 13
1 0 10 -12 8 -12 12 -2 18 7 5 11 15 9 23 -2 8 -2 12 0 9 7 -12 131 6 156 23
37 24 38 79 2 103 -34 22 -101 30 -120 14 -20 -17 -28 -8 -27 30 0 16 -4 30
-10 30 -6 0 -6 6 2 15 10 12 9 15 -6 15 -16 0 -17 2 -4 10 12 8 9 10 -12 10
-25 0 -28 4 -28 33 l0 34 -122 6 c-143 7 -181 20 -173 57 3 14 9 77 15 140 6
63 14 131 18 150 6 31 8 26 12 -35 l5 -70 95 -8 c52 -4 109 -5 127 -2 31 6 32
7 38 73 3 37 10 100 16 140 5 40 9 205 9 366 l0 293 -37 16 c-29 13 -96 19
-278 27 -132 5 -302 12 -377 16 l-138 5 -1 -53z m366 -1190 c3 -3 1 -18 -5
-34 -6 -16 -12 -50 -12 -76 l-1 -48 -48 0 c-33 0 -49 4 -53 16 -9 24 -7 75 5
118 l11 38 49 -4 c27 -3 52 -7 54 -10z m413 -24 c21 -4 31 -11 28 -19 -2 -7 0
-17 5 -22 4 -4 5 -22 1 -38 -8 -30 -9 -30 -98 -37 -49 -3 -113 -9 -141 -12
l-53 -6 0 52 c0 104 -3 102 119 95 58 -4 121 -9 139 -13z m17 -151 c4 -16 11
-36 16 -47 7 -11 7 -22 1 -28 -5 -5 -76 -13 -157 -18 -116 -8 -151 -7 -157 3
-10 15 -10 58 0 74 6 10 183 39 259 42 28 1 33 -3 38 -26z m-510 -9 c66 -1
129 -2 140 -3 17 -1 20 -8 20 -56 0 -53 -1 -55 -26 -55 -15 0 -62 6 -105 14
-44 8 -123 17 -178 20 -134 9 -156 23 -120 75 16 22 20 23 83 15 36 -4 120 -9
186 -10z m-110 -99 c50 -4 104 -10 120 -15 17 -5 51 -11 77 -15 l46 -6 4 -51
3 -51 -127 7 c-69 3 -160 13 -202 21 -128 24 -156 48 -121 102 15 23 21 25 63
20 26 -4 88 -9 137 -12z"/>
<path d="M1342 671 c-54 -9 -107 -58 -98 -89 39 -123 272 -190 621 -179 183 5
228 14 275 53 79 67 -1 144 -210 200 -62 17 -513 29 -588 15z"/>
</g>
</svg>
